<svg aria-roledescription="er" role="graphics-document document" viewBox="0 0 919.1030883789062 876" style="max-width: 919.103px; background-color: white;" xmlns:xlink="http://www.w3.org/1999/xlink" xmlns="http://www.w3.org/2000/svg" width="100%" id="my-svg"><style>#my-svg{font-family:"trebuchet ms",verdana,arial,sans-serif;font-size:16px;fill:#000000;}#my-svg .error-icon{fill:#552222;}#my-svg .error-text{fill:#552222;stroke:#552222;}#my-svg .edge-thickness-normal{stroke-width:2px;}#my-svg .edge-thickness-thick{stroke-width:3.5px;}#my-svg .edge-pattern-solid{stroke-dasharray:0;}#my-svg .edge-pattern-dashed{stroke-dasharray:3;}#my-svg .edge-pattern-dotted{stroke-dasharray:2;}#my-svg .marker{fill:#000000;stroke:#000000;}#my-svg .marker.cross{stroke:#000000;}#my-svg svg{font-family:"trebuchet ms",verdana,arial,sans-serif;font-size:16px;}#my-svg .entityBox{fill:#cde498;stroke:#13540c;}#my-svg .attributeBoxOdd{fill:#ffffff;stroke:#13540c;}#my-svg .attributeBoxEven{fill:#f2f2f2;stroke:#13540c;}#my-svg .relationshipLabelBox{fill:hsl(78.1578947368, 58.4615384615%, 84.5098039216%);opacity:0.7;background-color:hsl(78.1578947368, 58.4615384615%, 84.5098039216%);}#my-svg .relationshipLabelBox rect{opacity:0.5;}#my-svg .relationshipLine{stroke:#000000;}#my-svg .entityTitleText{text-anchor:middle;font-size:18px;fill:#000000;}#my-svg #MD_PARENT_START{fill:#f5f5f5!important;stroke:#000000!important;stroke-width:1;}#my-svg #MD_PARENT_END{fill:#f5f5f5!important;stroke:#000000!important;stroke-width:1;}#my-svg :root{--mermaid-font-family:"trebuchet ms",verdana,arial,sans-serif;}</style><g/><defs><marker orient="auto" markerHeight="240" markerWidth="190" refY="7" refX="0" id="MD_PARENT_START"><path d="M 18,7 L9,13 L1,7 L9,1 Z"/></marker></defs><defs><marker orient="auto" markerHeight="28" markerWidth="20" refY="7" refX="19" id="MD_PARENT_END"><path d="M 18,7 L9,13 L1,7 L9,1 Z"/></marker></defs><defs><marker orient="auto" markerHeight="18" markerWidth="18" refY="9" refX="0" id="ONLY_ONE_START"><path d="M9,0 L9,18 M15,0 L15,18" fill="none" stroke="gray"/></marker></defs><defs><marker orient="auto" markerHeight="18" markerWidth="18" refY="9" refX="18" id="ONLY_ONE_END"><path d="M3,0 L3,18 M9,0 L9,18" fill="none" stroke="gray"/></marker></defs><defs><marker orient="auto" markerHeight="18" markerWidth="30" refY="9" refX="0" id="ZERO_OR_ONE_START"><circle r="6" cy="9" cx="21" fill="white" stroke="gray"/><path d="M9,0 L9,18" fill="none" stroke="gray"/></marker></defs><defs><marker orient="auto" markerHeight="18" markerWidth="30" refY="9" refX="30" id="ZERO_OR_ONE_END"><circle r="6" cy="9" cx="9" fill="white" stroke="gray"/><path d="M21,0 L21,18" fill="none" stroke="gray"/></marker></defs><defs><marker orient="auto" markerHeight="36" markerWidth="45" refY="18" refX="18" id="ONE_OR_MORE_START"><path d="M0,18 Q 18,0 36,18 Q 18,36 0,18 M42,9 L42,27" fill="none" stroke="gray"/></marker></defs><defs><marker orient="auto" markerHeight="36" markerWidth="45" refY="18" refX="27" id="ONE_OR_MORE_END"><path d="M3,9 L3,27 M9,18 Q27,0 45,18 Q27,36 9,18" fill="none" stroke="gray"/></marker></defs><defs><marker orient="auto" markerHeight="36" markerWidth="57" refY="18" refX="18" id="ZERO_OR_MORE_START"><circle r="6" cy="18" cx="48" fill="white" stroke="gray"/><path d="M0,18 Q18,0 36,18 Q18,36 0,18" fill="none" stroke="gray"/></marker></defs><defs><marker orient="auto" markerHeight="36" markerWidth="57" refY="18" refX="39" id="ZERO_OR_MORE_END"><circle r="6" cy="18" cx="9" fill="white" stroke="gray"/><path d="M21,18 Q39,0 57,18 Q39,36 21,18" fill="none" stroke="gray"/></marker></defs><path style="stroke: gray; fill: none;" marker-start="url(#ZERO_OR_ONE_START)" marker-end="url(#ONLY_ONE_END)" d="M440.13574981689453,181.82182323411604L380.89047114054364,207.51818602843002C321.6451924641927,233.21454882274404,203.15463511149088,284.607274411372,143.90935643513998,324.13697053901933C84.66407775878906,363.6666666666667,84.66407775878906,391.3333333333333,84.66407775878906,405.1666666666667L84.66407775878906,419" class="er relationshipLine"/><path style="stroke: gray; fill: none;" marker-start="url(#ZERO_OR_MORE_START)" marker-end="url(#ZERO_OR_MORE_END)" d="M440.13574981689453,200.90689653897618L408.90463892618817,223.42241378248013C377.67352803548175,245.9379310259841,315.21130625406903,290.96896551299204,288.8295548159173,321.81781608982936C262.4478033777655,352.6666666666667,272.14652228287486,369.3333333333333,276.99588173542946,377.6666666666667L281.84524118798413,386" class="er relationshipLine"/><path style="stroke: gray; fill: none;" marker-start="url(#ZERO_OR_MORE_START)" marker-end="url(#ZERO_OR_MORE_END)" d="M573.0383682250977,250.28471667480468L582.7964833577474,264.5705972290039C592.5545984903971,278.85647778320316,612.0708287556967,307.42823889160155,627.7406248000273,335.5474527791341C643.4104208443579,363.6666666666667,655.2337826677198,391.3333333333333,661.1454635794006,405.1666666666667L667.0571444910815,419" class="er relationshipLine"/><path style="stroke: gray; fill: none;" marker-start="url(#ZERO_OR_MORE_START)" marker-end="url(#ZERO_OR_MORE_END)" d="M506.5870590209961,286L506.5870590209961,294.3333333333333C506.5870590209961,302.6666666666667,506.5870590209961,319.3333333333333,506.5870590209961,347.1666666666667C506.5870590209961,375,506.5870590209961,414,506.5870590209961,453C506.5870590209961,492,506.5870590209961,531,536.3927090962728,559.2032498219809C566.1983591715494,587.4064996439616,625.8096593221029,604.8129992879232,655.6153093973795,613.516249109904L685.4209594726562,622.2194989318848" class="er relationshipLine"/><path style="stroke: gray; fill: none;" marker-start="url(#ZERO_OR_ONE_START)" marker-end="url(#ONLY_ONE_END)" d="M349.4665698190021,386L353.0278233802556,377.6666666666667C356.5890769415092,369.3333333333333,363.7115840640163,352.6666666666667,378.82311406366506,328.76313533365783C393.9346440633138,304.85960400064897,417.0351969401042,273.719208001298,428.58547337849933,258.1490100016225L440.13574981689453,242.57881200194703" class="er relationshipLine"/><path style="stroke: gray; fill: none;" marker-start="url(#ZERO_OR_ONE_START)" marker-end="url(#ONLY_ONE_END)" d="M696.1169735509106,419L702.0286544625915,405.1666666666667C707.9403353742724,391.3333333333333,719.7636971976343,363.6666666666667,699.2505963099987,328.3411774698893C678.7374954223633,293.01568827311195,625.8879318237305,250.03137654622392,599.4631500244141,228.53922068277993L573.0383682250977,207.04706481933593" class="er relationshipLine"/><path style="stroke: gray; fill: none;" marker-start="url(#ZERO_OR_MORE_START)" marker-end="url(#ZERO_OR_MORE_END)" d="M681.5870590209961,487L681.5870590209961,500.8333333333333C681.5870590209961,514.6666666666666,681.5870590209961,542.3333333333334,690.1487028566125,564.5C698.710346692229,586.6666666666666,715.8336343634619,603.3333333333334,724.3952781990782,611.6666666666666L732.9569220346947,620" class="er relationshipLine"/><path style="stroke: gray; fill: none;" marker-start="url(#ZERO_OR_ONE_START)" marker-end="url(#ONLY_ONE_END)" d="M788.0939083360646,620L799.5094334502197,611.6666666666666C810.9249585643751,603.3333333333334,833.7560087926855,586.6666666666666,845.1715339068409,558.8333333333334C856.5870590209961,531,856.5870590209961,492,856.5870590209961,453C856.5870590209961,414,856.5870590209961,375,809.3289438883463,330.7907569449289C762.0708287556967,286.5815138898577,667.5545984903971,237.1630277797154,620.2964833577474,212.45378472464427L573.0383682250977,187.7445416695731" class="er relationshipLine"/><path style="stroke: gray; fill: none;" marker-start="url(#ZERO_OR_ONE_START)" marker-end="url(#ONLY_ONE_END)" d="M819.6007576511331,620L842.4318078794436,611.6666666666666C865.2628581077541,603.3333333333334,910.9249585643751,586.6666666666666,896.2560087926855,562.3787878787879C881.5870590209961,538.0909090909091,806.5870590209961,506.1818181818182,769.0870590209961,490.2272727272727L731.5870590209961,474.27272727272725" class="er relationshipLine"/><path style="stroke: gray; fill: none;" marker-start="url(#ZERO_OR_ONE_START)" marker-end="url(#ONLY_ONE_END)" d="M756.5870590209961,666L756.5870590209961,674.3333333333334C756.5870590209961,682.6666666666666,756.5870590209961,699.3333333333334,756.5870590209961,716C756.5870590209961,732.6666666666666,756.5870590209961,749.3333333333334,756.5870590209961,757.6666666666666L756.5870590209961,766" class="er relationshipLine"/><g transform="translate(20,419 )" id="entity-Role-8dbdbbc4-0419-5464-aae6-f142fb2ece67"><rect height="68" width="129.32815551757812" y="0" x="0" class="er entityBox"/><text style="dominant-baseline: middle; text-anchor: middle; font-size: 12px;" transform="translate(64.66407775878906,12)" y="0" x="0" id="text-entity-Role-8dbdbbc4-0419-5464-aae6-f142fb2ece67" class="er entityLabel">Role</text><rect height="22" width="64.66407775878906" y="24" x="0" class="er attributeBoxOdd"/><text style="dominant-baseline: middle; font-size: 10.2px;" transform="translate(5,35)" y="0" x="0" id="text-entity-Role-8dbdbbc4-0419-5464-aae6-f142fb2ece67-attr-1-type" class="er entityLabel">PENTESTER</text><rect height="22" width="64.66407775878906" y="24" x="64.66407775878906" class="er attributeBoxOdd"/><text style="dominant-baseline: middle; font-size: 10.2px;" transform="translate(69.66407775878906,35)" y="0" x="0" id="text-entity-Role-8dbdbbc4-0419-5464-aae6-f142fb2ece67-attr-1-name" class="er entityLabel">PENTESTER</text><rect height="22" width="64.66407775878906" y="46" x="0" class="er attributeBoxEven"/><text style="dominant-baseline: middle; font-size: 10.2px;" transform="translate(5,57)" y="0" x="0" id="text-entity-Role-8dbdbbc4-0419-5464-aae6-f142fb2ece67-attr-2-type" class="er entityLabel">ENTERPRISE</text><rect height="22" width="64.66407775878906" y="46" x="64.66407775878906" class="er attributeBoxEven"/><text style="dominant-baseline: middle; font-size: 10.2px;" transform="translate(69.66407775878906,57)" y="0" x="0" id="text-entity-Role-8dbdbbc4-0419-5464-aae6-f142fb2ece67-attr-2-name" class="er entityLabel">ENTERPRISE</text></g><g transform="translate(705.3272933959961,766 )" id="entity-CompanyRole-96a80fcc-ced5-59a9-9cc8-a3e1ff66e009"><rect height="90" width="102.51953125" y="0" x="0" class="er entityBox"/><text style="dominant-baseline: middle; text-anchor: middle; font-size: 12px;" transform="translate(51.259765625,12)" y="0" x="0" id="text-entity-CompanyRole-96a80fcc-ced5-59a9-9cc8-a3e1ff66e009" class="er entityLabel">CompanyRole</text><rect height="22" width="51.259765625" y="24" x="0" class="er attributeBoxOdd"/><text style="dominant-baseline: middle; font-size: 10.2px;" transform="translate(5,35)" y="0" x="0" id="text-entity-CompanyRole-96a80fcc-ced5-59a9-9cc8-a3e1ff66e009-attr-1-type" class="er entityLabel">OWNER</text><rect height="22" width="51.259765625" y="24" x="51.259765625" class="er attributeBoxOdd"/><text style="dominant-baseline: middle; font-size: 10.2px;" transform="translate(56.259765625,35)" y="0" x="0" id="text-entity-CompanyRole-96a80fcc-ced5-59a9-9cc8-a3e1ff66e009-attr-1-name" class="er entityLabel">OWNER</text><rect height="22" width="51.259765625" y="46" x="0" class="er attributeBoxEven"/><text style="dominant-baseline: middle; font-size: 10.2px;" transform="translate(5,57)" y="0" x="0" id="text-entity-CompanyRole-96a80fcc-ced5-59a9-9cc8-a3e1ff66e009-attr-2-type" class="er entityLabel">ADMIN</text><rect height="22" width="51.259765625" y="46" x="51.259765625" class="er attributeBoxEven"/><text style="dominant-baseline: middle; font-size: 10.2px;" transform="translate(56.259765625,57)" y="0" x="0" id="text-entity-CompanyRole-96a80fcc-ced5-59a9-9cc8-a3e1ff66e009-attr-2-name" class="er entityLabel">ADMIN</text><rect height="22" width="51.259765625" y="68" x="0" class="er attributeBoxOdd"/><text style="dominant-baseline: middle; font-size: 10.2px;" transform="translate(5,79)" y="0" x="0" id="text-entity-CompanyRole-96a80fcc-ced5-59a9-9cc8-a3e1ff66e009-attr-3-type" class="er entityLabel">MEMBER</text><rect height="22" width="51.259765625" y="68" x="51.259765625" class="er attributeBoxOdd"/><text style="dominant-baseline: middle; font-size: 10.2px;" transform="translate(56.259765625,79)" y="0" x="0" id="text-entity-CompanyRole-96a80fcc-ced5-59a9-9cc8-a3e1ff66e009-attr-3-name" class="er entityLabel">MEMBER</text></g><g transform="translate(440.13574981689453,20 )" id="entity-User-818c511a-4a32-5484-ba70-875d765a9175"><rect height="266" width="132.90261840820312" y="0" x="0" class="er entityBox"/><text style="dominant-baseline: middle; text-anchor: middle; font-size: 12px;" transform="translate(66.45130920410156,12)" y="0" x="0" id="text-entity-User-818c511a-4a32-5484-ba70-875d765a9175" class="er entityLabel">User</text><rect height="22" width="54.095550537109375" y="24" x="0" class="er attributeBoxOdd"/><text style="dominant-baseline: middle; font-size: 10.2px;" transform="translate(5,35)" y="0" x="0" id="text-entity-User-818c511a-4a32-5484-ba70-875d765a9175-attr-1-type" class="er entityLabel">String</text><rect height="22" width="58.60394287109375" y="24" x="54.095550537109375" class="er attributeBoxOdd"/><text style="dominant-baseline: middle; font-size: 10.2px;" transform="translate(59.095550537109375,35)" y="0" x="0" id="text-entity-User-818c511a-4a32-5484-ba70-875d765a9175-attr-1-name" class="er entityLabel">id</text><rect height="22" width="20.203125" y="24" x="112.69949340820312" class="er attributeBoxOdd"/><text style="dominant-baseline: middle; font-size: 10.2px;" transform="translate(117.69949340820312,35)" y="0" x="0" id="text-entity-User-818c511a-4a32-5484-ba70-875d765a9175-attr-1-comment" class="er entityLabel">🗝️</text><rect height="22" width="54.095550537109375" y="46" x="0" class="er attributeBoxEven"/><text style="dominant-baseline: middle; font-size: 10.2px;" transform="translate(5,57)" y="0" x="0" id="text-entity-User-818c511a-4a32-5484-ba70-875d765a9175-attr-2-type" class="er entityLabel">String</text><rect height="22" width="58.60394287109375" y="46" x="54.095550537109375" class="er attributeBoxEven"/><text style="dominant-baseline: middle; font-size: 10.2px;" transform="translate(59.095550537109375,57)" y="0" x="0" id="text-entity-User-818c511a-4a32-5484-ba70-875d765a9175-attr-2-name" class="er entityLabel">firstName</text><rect height="22" width="20.203125" y="46" x="112.69949340820312" class="er attributeBoxEven"/><text style="dominant-baseline: middle; font-size: 10.2px;" transform="translate(117.69949340820312,57)" y="0" x="0" id="text-entity-User-818c511a-4a32-5484-ba70-875d765a9175-attr-2-comment" class="er entityLabel"/><rect height="22" width="54.095550537109375" y="68" x="0" class="er attributeBoxOdd"/><text style="dominant-baseline: middle; font-size: 10.2px;" transform="translate(5,79)" y="0" x="0" id="text-entity-User-818c511a-4a32-5484-ba70-875d765a9175-attr-3-type" class="er entityLabel">String</text><rect height="22" width="58.60394287109375" y="68" x="54.095550537109375" class="er attributeBoxOdd"/><text style="dominant-baseline: middle; font-size: 10.2px;" transform="translate(59.095550537109375,79)" y="0" x="0" id="text-entity-User-818c511a-4a32-5484-ba70-875d765a9175-attr-3-name" class="er entityLabel">lastName</text><rect height="22" width="20.203125" y="68" x="112.69949340820312" class="er attributeBoxOdd"/><text style="dominant-baseline: middle; font-size: 10.2px;" transform="translate(117.69949340820312,79)" y="0" x="0" id="text-entity-User-818c511a-4a32-5484-ba70-875d765a9175-attr-3-comment" class="er entityLabel"/><rect height="22" width="54.095550537109375" y="90" x="0" class="er attributeBoxEven"/><text style="dominant-baseline: middle; font-size: 10.2px;" transform="translate(5,101)" y="0" x="0" id="text-entity-User-818c511a-4a32-5484-ba70-875d765a9175-attr-4-type" class="er entityLabel">String</text><rect height="22" width="58.60394287109375" y="90" x="54.095550537109375" class="er attributeBoxEven"/><text style="dominant-baseline: middle; font-size: 10.2px;" transform="translate(59.095550537109375,101)" y="0" x="0" id="text-entity-User-818c511a-4a32-5484-ba70-875d765a9175-attr-4-name" class="er entityLabel">username</text><rect height="22" width="20.203125" y="90" x="112.69949340820312" class="er attributeBoxEven"/><text style="dominant-baseline: middle; font-size: 10.2px;" transform="translate(117.69949340820312,101)" y="0" x="0" id="text-entity-User-818c511a-4a32-5484-ba70-875d765a9175-attr-4-comment" class="er entityLabel"/><rect height="22" width="54.095550537109375" y="112" x="0" class="er attributeBoxOdd"/><text style="dominant-baseline: middle; font-size: 10.2px;" transform="translate(5,123)" y="0" x="0" id="text-entity-User-818c511a-4a32-5484-ba70-875d765a9175-attr-5-type" class="er entityLabel">String</text><rect height="22" width="58.60394287109375" y="112" x="54.095550537109375" class="er attributeBoxOdd"/><text style="dominant-baseline: middle; font-size: 10.2px;" transform="translate(59.095550537109375,123)" y="0" x="0" id="text-entity-User-818c511a-4a32-5484-ba70-875d765a9175-attr-5-name" class="er entityLabel">email</text><rect height="22" width="20.203125" y="112" x="112.69949340820312" class="er attributeBoxOdd"/><text style="dominant-baseline: middle; font-size: 10.2px;" transform="translate(117.69949340820312,123)" y="0" x="0" id="text-entity-User-818c511a-4a32-5484-ba70-875d765a9175-attr-5-comment" class="er entityLabel"/><rect height="22" width="54.095550537109375" y="134" x="0" class="er attributeBoxEven"/><text style="dominant-baseline: middle; font-size: 10.2px;" transform="translate(5,145)" y="0" x="0" id="text-entity-User-818c511a-4a32-5484-ba70-875d765a9175-attr-6-type" class="er entityLabel">String</text><rect height="22" width="58.60394287109375" y="134" x="54.095550537109375" class="er attributeBoxEven"/><text style="dominant-baseline: middle; font-size: 10.2px;" transform="translate(59.095550537109375,145)" y="0" x="0" id="text-entity-User-818c511a-4a32-5484-ba70-875d765a9175-attr-6-name" class="er entityLabel">password</text><rect height="22" width="20.203125" y="134" x="112.69949340820312" class="er attributeBoxEven"/><text style="dominant-baseline: middle; font-size: 10.2px;" transform="translate(117.69949340820312,145)" y="0" x="0" id="text-entity-User-818c511a-4a32-5484-ba70-875d765a9175-attr-6-comment" class="er entityLabel"/><rect height="22" width="54.095550537109375" y="156" x="0" class="er attributeBoxOdd"/><text style="dominant-baseline: middle; font-size: 10.2px;" transform="translate(5,167)" y="0" x="0" id="text-entity-User-818c511a-4a32-5484-ba70-875d765a9175-attr-7-type" class="er entityLabel">Boolean</text><rect height="22" width="58.60394287109375" y="156" x="54.095550537109375" class="er attributeBoxOdd"/><text style="dominant-baseline: middle; font-size: 10.2px;" transform="translate(59.095550537109375,167)" y="0" x="0" id="text-entity-User-818c511a-4a32-5484-ba70-875d765a9175-attr-7-name" class="er entityLabel">mfa</text><rect height="22" width="20.203125" y="156" x="112.69949340820312" class="er attributeBoxOdd"/><text style="dominant-baseline: middle; font-size: 10.2px;" transform="translate(117.69949340820312,167)" y="0" x="0" id="text-entity-User-818c511a-4a32-5484-ba70-875d765a9175-attr-7-comment" class="er entityLabel"/><rect height="22" width="54.095550537109375" y="178" x="0" class="er attributeBoxEven"/><text style="dominant-baseline: middle; font-size: 10.2px;" transform="translate(5,189)" y="0" x="0" id="text-entity-User-818c511a-4a32-5484-ba70-875d765a9175-attr-8-type" class="er entityLabel">Boolean</text><rect height="22" width="58.60394287109375" y="178" x="54.095550537109375" class="er attributeBoxEven"/><text style="dominant-baseline: middle; font-size: 10.2px;" transform="translate(59.095550537109375,189)" y="0" x="0" id="text-entity-User-818c511a-4a32-5484-ba70-875d765a9175-attr-8-name" class="er entityLabel">confirmed</text><rect height="22" width="20.203125" y="178" x="112.69949340820312" class="er attributeBoxEven"/><text style="dominant-baseline: middle; font-size: 10.2px;" transform="translate(117.69949340820312,189)" y="0" x="0" id="text-entity-User-818c511a-4a32-5484-ba70-875d765a9175-attr-8-comment" class="er entityLabel"/><rect height="22" width="54.095550537109375" y="200" x="0" class="er attributeBoxOdd"/><text style="dominant-baseline: middle; font-size: 10.2px;" transform="translate(5,211)" y="0" x="0" id="text-entity-User-818c511a-4a32-5484-ba70-875d765a9175-attr-9-type" class="er entityLabel">DateTime</text><rect height="22" width="58.60394287109375" y="200" x="54.095550537109375" class="er attributeBoxOdd"/><text style="dominant-baseline: middle; font-size: 10.2px;" transform="translate(59.095550537109375,211)" y="0" x="0" id="text-entity-User-818c511a-4a32-5484-ba70-875d765a9175-attr-9-name" class="er entityLabel">createdAt</text><rect height="22" width="20.203125" y="200" x="112.69949340820312" class="er attributeBoxOdd"/><text style="dominant-baseline: middle; font-size: 10.2px;" transform="translate(117.69949340820312,211)" y="0" x="0" id="text-entity-User-818c511a-4a32-5484-ba70-875d765a9175-attr-9-comment" class="er entityLabel"/><rect height="22" width="54.095550537109375" y="222" x="0" class="er attributeBoxEven"/><text style="dominant-baseline: middle; font-size: 10.2px;" transform="translate(5,233)" y="0" x="0" id="text-entity-User-818c511a-4a32-5484-ba70-875d765a9175-attr-10-type" class="er entityLabel">DateTime</text><rect height="22" width="58.60394287109375" y="222" x="54.095550537109375" class="er attributeBoxEven"/><text style="dominant-baseline: middle; font-size: 10.2px;" transform="translate(59.095550537109375,233)" y="0" x="0" id="text-entity-User-818c511a-4a32-5484-ba70-875d765a9175-attr-10-name" class="er entityLabel">updatedAt</text><rect height="22" width="20.203125" y="222" x="112.69949340820312" class="er attributeBoxEven"/><text style="dominant-baseline: middle; font-size: 10.2px;" transform="translate(117.69949340820312,233)" y="0" x="0" id="text-entity-User-818c511a-4a32-5484-ba70-875d765a9175-attr-10-comment" class="er entityLabel"/><rect height="22" width="54.095550537109375" y="244" x="0" class="er attributeBoxOdd"/><text style="dominant-baseline: middle; font-size: 10.2px;" transform="translate(5,255)" y="0" x="0" id="text-entity-User-818c511a-4a32-5484-ba70-875d765a9175-attr-11-type" class="er entityLabel">Role</text><rect height="22" width="58.60394287109375" y="244" x="54.095550537109375" class="er attributeBoxOdd"/><text style="dominant-baseline: middle; font-size: 10.2px;" transform="translate(59.095550537109375,255)" y="0" x="0" id="text-entity-User-818c511a-4a32-5484-ba70-875d765a9175-attr-11-name" class="er entityLabel">role</text><rect height="22" width="20.203125" y="244" x="112.69949340820312" class="er attributeBoxOdd"/><text style="dominant-baseline: middle; font-size: 10.2px;" transform="translate(117.69949340820312,255)" y="0" x="0" id="text-entity-User-818c511a-4a32-5484-ba70-875d765a9175-attr-11-comment" class="er entityLabel"/></g><g transform="translate(249.32815551757812,386 )" id="entity-RefreshToken-141b36b0-04ae-5498-9fad-17dc3a4ed017"><rect height="134" width="143.01187133789062" y="0" x="0" class="er entityBox"/><text style="dominant-baseline: middle; text-anchor: middle; font-size: 12px;" transform="translate(71.50593566894531,12)" y="0" x="0" id="text-entity-RefreshToken-141b36b0-04ae-5498-9fad-17dc3a4ed017" class="er entityLabel">RefreshToken</text><rect height="22" width="54.095550537109375" y="24" x="0" class="er attributeBoxOdd"/><text style="dominant-baseline: middle; font-size: 10.2px;" transform="translate(5,35)" y="0" x="0" id="text-entity-RefreshToken-141b36b0-04ae-5498-9fad-17dc3a4ed017-attr-1-type" class="er entityLabel">String</text><rect height="22" width="68.71319580078125" y="24" x="54.095550537109375" class="er attributeBoxOdd"/><text style="dominant-baseline: middle; font-size: 10.2px;" transform="translate(59.095550537109375,35)" y="0" x="0" id="text-entity-RefreshToken-141b36b0-04ae-5498-9fad-17dc3a4ed017-attr-1-name" class="er entityLabel">id</text><rect height="22" width="20.203125" y="24" x="122.80874633789062" class="er attributeBoxOdd"/><text style="dominant-baseline: middle; font-size: 10.2px;" transform="translate(127.80874633789062,35)" y="0" x="0" id="text-entity-RefreshToken-141b36b0-04ae-5498-9fad-17dc3a4ed017-attr-1-comment" class="er entityLabel">🗝️</text><rect height="22" width="54.095550537109375" y="46" x="0" class="er attributeBoxEven"/><text style="dominant-baseline: middle; font-size: 10.2px;" transform="translate(5,57)" y="0" x="0" id="text-entity-RefreshToken-141b36b0-04ae-5498-9fad-17dc3a4ed017-attr-2-type" class="er entityLabel">String</text><rect height="22" width="68.71319580078125" y="46" x="54.095550537109375" class="er attributeBoxEven"/><text style="dominant-baseline: middle; font-size: 10.2px;" transform="translate(59.095550537109375,57)" y="0" x="0" id="text-entity-RefreshToken-141b36b0-04ae-5498-9fad-17dc3a4ed017-attr-2-name" class="er entityLabel">hashedToken</text><rect height="22" width="20.203125" y="46" x="122.80874633789062" class="er attributeBoxEven"/><text style="dominant-baseline: middle; font-size: 10.2px;" transform="translate(127.80874633789062,57)" y="0" x="0" id="text-entity-RefreshToken-141b36b0-04ae-5498-9fad-17dc3a4ed017-attr-2-comment" class="er entityLabel"/><rect height="22" width="54.095550537109375" y="68" x="0" class="er attributeBoxOdd"/><text style="dominant-baseline: middle; font-size: 10.2px;" transform="translate(5,79)" y="0" x="0" id="text-entity-RefreshToken-141b36b0-04ae-5498-9fad-17dc3a4ed017-attr-3-type" class="er entityLabel">Boolean</text><rect height="22" width="68.71319580078125" y="68" x="54.095550537109375" class="er attributeBoxOdd"/><text style="dominant-baseline: middle; font-size: 10.2px;" transform="translate(59.095550537109375,79)" y="0" x="0" id="text-entity-RefreshToken-141b36b0-04ae-5498-9fad-17dc3a4ed017-attr-3-name" class="er entityLabel">revoked</text><rect height="22" width="20.203125" y="68" x="122.80874633789062" class="er attributeBoxOdd"/><text style="dominant-baseline: middle; font-size: 10.2px;" transform="translate(127.80874633789062,79)" y="0" x="0" id="text-entity-RefreshToken-141b36b0-04ae-5498-9fad-17dc3a4ed017-attr-3-comment" class="er entityLabel"/><rect height="22" width="54.095550537109375" y="90" x="0" class="er attributeBoxEven"/><text style="dominant-baseline: middle; font-size: 10.2px;" transform="translate(5,101)" y="0" x="0" id="text-entity-RefreshToken-141b36b0-04ae-5498-9fad-17dc3a4ed017-attr-4-type" class="er entityLabel">DateTime</text><rect height="22" width="68.71319580078125" y="90" x="54.095550537109375" class="er attributeBoxEven"/><text style="dominant-baseline: middle; font-size: 10.2px;" transform="translate(59.095550537109375,101)" y="0" x="0" id="text-entity-RefreshToken-141b36b0-04ae-5498-9fad-17dc3a4ed017-attr-4-name" class="er entityLabel">createdAt</text><rect height="22" width="20.203125" y="90" x="122.80874633789062" class="er attributeBoxEven"/><text style="dominant-baseline: middle; font-size: 10.2px;" transform="translate(127.80874633789062,101)" y="0" x="0" id="text-entity-RefreshToken-141b36b0-04ae-5498-9fad-17dc3a4ed017-attr-4-comment" class="er entityLabel"/><rect height="22" width="54.095550537109375" y="112" x="0" class="er attributeBoxOdd"/><text style="dominant-baseline: middle; font-size: 10.2px;" transform="translate(5,123)" y="0" x="0" id="text-entity-RefreshToken-141b36b0-04ae-5498-9fad-17dc3a4ed017-attr-5-type" class="er entityLabel">DateTime</text><rect height="22" width="68.71319580078125" y="112" x="54.095550537109375" class="er attributeBoxOdd"/><text style="dominant-baseline: middle; font-size: 10.2px;" transform="translate(59.095550537109375,123)" y="0" x="0" id="text-entity-RefreshToken-141b36b0-04ae-5498-9fad-17dc3a4ed017-attr-5-name" class="er entityLabel">updatedAt</text><rect height="22" width="20.203125" y="112" x="122.80874633789062" class="er attributeBoxOdd"/><text style="dominant-baseline: middle; font-size: 10.2px;" transform="translate(127.80874633789062,123)" y="0" x="0" id="text-entity-RefreshToken-141b36b0-04ae-5498-9fad-17dc3a4ed017-attr-5-comment" class="er entityLabel"/></g><g transform="translate(631.5870590209961,419 )" id="entity-Company-4e21dbbb-c9c4-54f1-b143-0dbaa987d0dc"><rect height="68" width="100" y="0" x="0" class="er entityBox"/><text style="dominant-baseline: middle; text-anchor: middle; font-size: 12px;" transform="translate(50,12)" y="0" x="0" id="text-entity-Company-4e21dbbb-c9c4-54f1-b143-0dbaa987d0dc" class="er entityLabel">Company</text><rect height="22" width="39.73002624511719" y="24" x="0" class="er attributeBoxOdd"/><text style="dominant-baseline: middle; font-size: 10.2px;" transform="translate(5,35)" y="0" x="0" id="text-entity-Company-4e21dbbb-c9c4-54f1-b143-0dbaa987d0dc-attr-1-type" class="er entityLabel">String</text><rect height="22" width="37.732879638671875" y="24" x="39.73002624511719" class="er attributeBoxOdd"/><text style="dominant-baseline: middle; font-size: 10.2px;" transform="translate(44.73002624511719,35)" y="0" x="0" id="text-entity-Company-4e21dbbb-c9c4-54f1-b143-0dbaa987d0dc-attr-1-name" class="er entityLabel">id</text><rect height="22" width="22.537094116210938" y="24" x="77.46290588378906" class="er attributeBoxOdd"/><text style="dominant-baseline: middle; font-size: 10.2px;" transform="translate(82.46290588378906,35)" y="0" x="0" id="text-entity-Company-4e21dbbb-c9c4-54f1-b143-0dbaa987d0dc-attr-1-comment" class="er entityLabel">🗝️</text><rect height="22" width="39.73002624511719" y="46" x="0" class="er attributeBoxEven"/><text style="dominant-baseline: middle; font-size: 10.2px;" transform="translate(5,57)" y="0" x="0" id="text-entity-Company-4e21dbbb-c9c4-54f1-b143-0dbaa987d0dc-attr-2-type" class="er entityLabel">String</text><rect height="22" width="37.732879638671875" y="46" x="39.73002624511719" class="er attributeBoxEven"/><text style="dominant-baseline: middle; font-size: 10.2px;" transform="translate(44.73002624511719,57)" y="0" x="0" id="text-entity-Company-4e21dbbb-c9c4-54f1-b143-0dbaa987d0dc-attr-2-name" class="er entityLabel">name</text><rect height="22" width="22.537094116210938" y="46" x="77.46290588378906" class="er attributeBoxEven"/><text style="dominant-baseline: middle; font-size: 10.2px;" transform="translate(82.46290588378906,57)" y="0" x="0" id="text-entity-Company-4e21dbbb-c9c4-54f1-b143-0dbaa987d0dc-attr-2-comment" class="er entityLabel"/></g><g transform="translate(685.4209594726562,620 )" id="entity-CompanyMember-3c172ec8-188a-53f3-be1d-67dd5eab0349"><rect height="46" width="142.3321990966797" y="0" x="0" class="er entityBox"/><text style="dominant-baseline: middle; text-anchor: middle; font-size: 12px;" transform="translate(71.16609954833984,12)" y="0" x="0" id="text-entity-CompanyMember-3c172ec8-188a-53f3-be1d-67dd5eab0349" class="er entityLabel">CompanyMember</text><rect height="22" width="71.69154357910156" y="24" x="0" class="er attributeBoxOdd"/><text style="dominant-baseline: middle; font-size: 10.2px;" transform="translate(5,35)" y="0" x="0" id="text-entity-CompanyMember-3c172ec8-188a-53f3-be1d-67dd5eab0349-attr-1-type" class="er entityLabel">CompanyRole</text><rect height="22" width="70.64065551757812" y="24" x="71.69154357910156" class="er attributeBoxOdd"/><text style="dominant-baseline: middle; font-size: 10.2px;" transform="translate(76.69154357910156,35)" y="0" x="0" id="text-entity-CompanyMember-3c172ec8-188a-53f3-be1d-67dd5eab0349-attr-1-name" class="er entityLabel">companyRole</text></g><rect height="14" width="55.66796875" y="266.4022521972656" x="208.042236328125" class="er relationshipLabelBox"/><text style="text-anchor: middle; dominant-baseline: middle; font-size: 12px;" y="273.4022521972656" x="235.876220703125" id="rel1" class="er relationshipLabel">enum:role</text><rect height="14" width="71.611328125" y="273.1759948730469" x="297.89447021484375" class="er relationshipLabelBox"/><text style="text-anchor: middle; dominant-baseline: middle; font-size: 12px;" y="280.1759948730469" x="333.70013427734375" id="rel2" class="er relationshipLabel">RefreshToken</text><rect height="14" width="50.125" y="324.6087341308594" x="600.460205078125" class="er relationshipLabelBox"/><text style="text-anchor: middle; dominant-baseline: middle; font-size: 12px;" y="331.6087341308594" x="625.522705078125" id="rel3" class="er relationshipLabel">Company</text><rect height="14" width="93.29296875" y="500.8193359375" x="463.20989990234375" class="er relationshipLabelBox"/><text style="text-anchor: middle; dominant-baseline: middle; font-size: 12px;" y="507.8193359375" x="509.85638427734375" id="rel4" class="er relationshipLabel">CompanyMember</text><rect height="14" width="25.18359375" y="304.4959716796875" x="377.6224365234375" class="er relationshipLabelBox"/><text style="text-anchor: middle; dominant-baseline: middle; font-size: 12px;" y="311.4959716796875" x="390.2142333984375" id="rel5" class="er relationshipLabel">User</text><rect height="14" width="36.1171875" y="289.4850769042969" x="656.7107543945312" class="er relationshipLabelBox"/><text style="text-anchor: middle; dominant-baseline: middle; font-size: 12px;" y="296.4850769042969" x="674.7693481445312" id="rel6" class="er relationshipLabel">Owner</text><rect height="14" width="93.29296875" y="553.8676147460938" x="642.1902465820312" class="er relationshipLabelBox"/><text style="text-anchor: middle; dominant-baseline: middle; font-size: 12px;" y="560.8676147460938" x="688.8367309570312" id="rel7" class="er relationshipLabel">CompanyMember</text><rect height="14" width="25.18359375" y="342.4075927734375" x="814.2131958007812" class="er relationshipLabelBox"/><text style="text-anchor: middle; dominant-baseline: middle; font-size: 12px;" y="349.4075927734375" x="826.8049926757812" id="rel8" class="er relationshipLabel">User</text><rect height="14" width="50.125" y="529.5099487304688" x="840.1780395507812" class="er relationshipLabelBox"/><text style="text-anchor: middle; dominant-baseline: middle; font-size: 12px;" y="536.5099487304688" x="865.2405395507812" id="rel9" class="er relationshipLabel">Company</text><rect height="14" width="105.30859375" y="709" x="703.9327392578125" class="er relationshipLabelBox"/><text style="text-anchor: middle; dominant-baseline: middle; font-size: 12px;" y="716" x="756.5870361328125" id="rel10" class="er relationshipLabel">enum:companyRole</text></svg>